<svg width="133" height="40" viewBox="0 0 133 40" fill="none" xmlns="http://www.w3.org/2000/svg">
<path fill-rule="evenodd" clip-rule="evenodd" d="M127.978 39.3481H5.08337C3.78323 39.3475 2.53619 38.8345 1.61473 37.9211C0.693268 37.0078 0.172298 35.7684 0.165649 34.4738L0.165649 5.22335C0.170533 3.9281 0.690911 2.68761 1.61273 1.77376C2.53455 0.859911 3.78261 0.347252 5.08337 0.348146H127.978C129.279 0.347473 130.526 0.860202 131.448 1.774C132.37 2.68781 132.89 3.92817 132.896 5.22335V34.4738C132.888 35.7683 132.367 37.0074 131.446 37.9206C130.525 38.8339 129.278 39.3471 127.978 39.3481Z" fill="black"/>
<path fill-rule="evenodd" clip-rule="evenodd" d="M127.978 1.12824C129.07 1.12823 130.118 1.55864 130.893 2.32546C131.667 3.09228 132.106 4.1332 132.112 5.22085V34.4738C132.108 35.5621 131.67 36.6043 130.895 37.3716C130.12 38.1389 129.071 38.5686 127.978 38.5664H5.08337C3.99109 38.5664 2.94318 38.136 2.16854 37.3692C1.3939 36.6023 0.95549 35.5614 0.949063 34.4738V5.22335C0.952617 4.13459 1.39003 3.09175 2.16522 2.32391C2.94041 1.55607 3.98998 1.12603 5.08337 1.12824H127.978ZM127.978 0.348145H5.08337C3.78308 0.348791 2.53592 0.861946 1.61443 1.77546C0.69295 2.68898 0.172078 3.92858 0.165649 5.22335L0.165649 34.4738C0.170533 35.769 0.690911 37.0095 1.61273 37.9234C2.53455 38.8372 3.78261 39.3499 5.08337 39.349H127.978C129.279 39.3497 130.526 38.8369 131.448 37.9231C132.37 37.0093 132.89 35.769 132.896 34.4738V5.22335C132.889 3.92872 132.368 2.68937 131.446 1.77595C130.525 0.862526 129.278 0.34923 127.978 0.348145Z" fill="#A6A6A6"/>
<path d="M70.0846 13.2492C69.67 13.2586 69.258 13.1818 68.8749 13.0236C68.4919 12.8654 68.1463 12.6293 67.8602 12.3305C67.5691 12.0355 67.3397 11.6859 67.1855 11.3019C67.0313 10.9179 66.9552 10.5072 66.9618 10.0937C66.9516 9.68014 67.0261 9.2688 67.1805 8.88472C67.3349 8.50064 67.5662 8.15183 67.8602 7.8595C68.1457 7.56054 68.4909 7.32437 68.8735 7.16614C69.2562 7.00792 69.6678 6.93114 70.082 6.94074C70.4963 6.93319 70.9078 7.01091 71.2905 7.169C71.6733 7.32709 72.0192 7.56215 72.3065 7.8595C72.8834 8.46165 73.2053 9.26192 73.2053 10.0941C73.2053 10.9264 72.8834 11.7266 72.3065 12.3288C72.0217 12.6288 71.6767 12.8658 71.2939 13.0244C70.9111 13.183 70.4991 13.2596 70.0846 13.2492ZM43.711 13.2492C43.2967 13.2553 42.8854 13.1783 42.5015 13.0229C42.1177 12.8675 41.7691 12.6369 41.4765 12.3447C41.0277 11.9051 40.7207 11.3423 40.5948 10.7282C40.4689 10.114 40.5298 9.47647 40.7697 8.89695C41.0096 8.31744 41.4176 7.82231 41.9416 7.47489C42.4655 7.12747 43.0816 6.94355 43.711 6.94661C44.1402 6.94614 44.5648 7.034 44.9583 7.20468C45.3234 7.35296 45.6487 7.58437 45.9078 7.88037L45.9665 7.95054L45.3047 8.597L45.2359 8.51347C45.0483 8.2931 44.8121 8.11895 44.5456 8.00463C44.2792 7.89031 43.9898 7.83894 43.7001 7.8545C43.4161 7.85094 43.1343 7.90417 42.8714 8.01105C42.6084 8.11794 42.3697 8.2763 42.1694 8.47674C41.755 8.91505 41.5243 9.4943 41.5243 10.0962C41.5243 10.6982 41.755 11.2774 42.1694 11.7157C42.5863 12.1153 43.1424 12.3385 43.7211 12.3385C44.2997 12.3385 44.8559 12.1153 45.2728 11.7157C45.5334 11.438 45.6919 11.0806 45.7224 10.7018H43.6004V9.7922H46.6333L46.6459 9.87573C46.671 10.0268 46.6855 10.1795 46.6896 10.3326C46.7073 10.7023 46.6495 11.0717 46.5198 11.4186C46.39 11.7654 46.1909 12.0825 45.9346 12.3505C45.6482 12.6465 45.3026 12.8794 44.9202 13.0342C44.5377 13.189 44.127 13.2622 43.7144 13.2492H43.711ZM78.7776 13.1206H77.8424L74.978 8.5569L75.0023 9.37877V13.1181H74.0671V7.07606H75.134L75.1634 7.122L77.8566 11.4209L77.8324 10.6015V7.07606H78.7776V13.1206ZM63.0573 13.1206H62.1162V7.98562H60.4731V7.07606H64.7047V7.98562H63.0615V13.1206H63.0573ZM59.6947 13.1206H58.7494V7.07606H59.6947V13.1206ZM54.3836 13.1206H53.4383V7.98562H51.7993V7.07606H56.0309V7.98562H54.3878L54.3836 13.1206ZM51.1962 13.1106H47.5728V7.07606H51.1962V7.98562H48.5282V9.64355H50.9429V10.5431H48.5282V12.201H51.2046L51.1962 13.1106ZM68.5521 11.7074C68.7505 11.9111 68.9887 12.0722 69.2519 12.181C69.5152 12.2897 69.798 12.3437 70.0829 12.3397C70.3683 12.3469 70.6521 12.2943 70.9158 12.1854C71.1795 12.0765 71.4172 11.9136 71.6137 11.7074C72.0152 11.2667 72.2375 10.6929 72.2375 10.0979C72.2375 9.50286 72.0152 8.92912 71.6137 8.48841C71.415 8.28499 71.1768 8.12402 70.9136 8.01531C70.6504 7.9066 70.3678 7.85246 70.0829 7.85616C69.7979 7.8487 69.5144 7.90114 69.2511 8.01009C68.9878 8.11903 68.7505 8.28201 68.5547 8.48841C68.1534 8.92893 67.9306 9.50218 67.9297 10.0969C67.9288 10.6917 68.1497 11.2656 68.5497 11.7074H68.5521Z" fill="white"/>
<path fill-rule="evenodd" clip-rule="evenodd" d="M66.8791 21.5604C66.0558 21.5629 65.2517 21.8083 64.5684 22.2655C63.8851 22.7228 63.3532 23.3714 63.0398 24.1295C62.7265 24.8877 62.6458 25.7213 62.8079 26.525C62.9701 27.3288 63.3678 28.0666 63.9508 28.6454C64.5338 29.2243 65.276 29.618 66.0837 29.7771C66.8913 29.9361 67.7282 29.8532 68.4886 29.5389C69.249 29.2246 69.8987 28.693 70.3559 28.0112C70.813 27.3294 71.057 26.5279 71.057 25.7081C71.0658 25.16 70.9636 24.6157 70.7566 24.1077C70.5496 23.5997 70.242 23.1384 69.8521 22.7514C69.4622 22.3643 68.998 22.0594 68.4873 21.8548C67.9765 21.6501 67.4296 21.55 66.8791 21.5604ZM66.8791 28.213C66.372 28.2496 65.8655 28.1332 65.4257 27.8791C64.9859 27.625 64.6331 27.2448 64.4134 26.7883C64.1936 26.3317 64.1171 25.8198 64.1937 25.3192C64.2702 24.8187 64.4965 24.3527 64.8428 23.982C65.1891 23.6113 65.6394 23.353 66.1353 23.2408C66.6311 23.1286 67.1494 23.1677 67.6226 23.353C68.0958 23.5383 68.502 23.8612 68.7883 24.2796C69.0746 24.6981 69.2277 25.1926 69.2276 25.699C69.2428 26.0184 69.1937 26.3377 69.0833 26.638C68.9728 26.9383 68.8033 27.2135 68.5845 27.4477C68.3657 27.6818 68.1021 27.8701 67.8092 28.0013C67.5164 28.1326 67.2002 28.2051 66.8791 28.213ZM57.7641 21.5604C56.9408 21.5629 56.1367 21.8083 55.4534 22.2655C54.7701 22.7228 54.2382 23.3714 53.9248 24.1295C53.6115 24.8877 53.5308 25.7213 53.6929 26.525C53.8551 27.3288 54.2528 28.0666 54.8358 28.6454C55.4188 29.2243 56.1611 29.618 56.9688 29.7771C57.7764 29.9361 58.6132 29.8532 59.3736 29.5389C60.134 29.2246 60.7838 28.693 61.241 28.0112C61.6981 27.3294 61.942 26.5279 61.942 25.7081C61.9508 25.1598 61.8486 24.6153 61.6414 24.1071C61.4342 23.599 61.1264 23.1375 60.7363 22.7504C60.3461 22.3633 59.8816 22.0584 59.3705 21.854C58.8594 21.6495 58.3123 21.5497 57.7617 21.5604H57.7641ZM57.7641 28.213C57.257 28.2496 56.7506 28.1332 56.3108 27.8791C55.871 27.625 55.5182 27.2448 55.2985 26.7883C55.0787 26.3317 55.0022 25.8198 55.0788 25.3192C55.1553 24.8187 55.3815 24.3527 55.7278 23.982C56.0741 23.6113 56.5246 23.353 57.0204 23.2408C57.5162 23.1286 58.0345 23.1677 58.5077 23.353C58.9809 23.5383 59.3871 23.8612 59.6734 24.2796C59.9597 24.6981 60.1128 25.1926 60.1127 25.699C60.1279 26.0186 60.0788 26.3381 59.9682 26.6385C59.8576 26.939 59.6877 27.2144 59.4686 27.4486C59.2496 27.6827 58.9858 27.8709 58.6926 28.002C58.3994 28.1332 58.083 28.2046 57.7617 28.2122L57.7641 28.213ZM46.9163 22.8266V24.5806H51.1479C51.0851 25.4029 50.7483 26.1807 50.1909 26.7906C49.7678 27.2212 49.2585 27.5584 48.6961 27.7804C48.1338 28.0025 47.5308 28.1043 46.9263 28.0793C45.6797 28.0793 44.4841 27.5862 43.6026 26.7084C42.7211 25.8306 42.2258 24.6401 42.2258 23.3988C42.2258 22.1574 42.7211 20.9669 43.6026 20.0891C44.4841 19.2113 45.6797 18.7182 46.9263 18.7182C48.1134 18.7038 49.2584 19.1554 50.1137 19.9752L51.3643 18.7298C50.7826 18.1547 50.0913 17.7011 49.331 17.3959C48.5708 17.0907 47.7569 16.9399 46.9373 16.9525C46.0797 16.9387 45.2279 17.095 44.4316 17.4123C43.6353 17.7296 42.9104 18.2015 42.2991 18.8005C41.6877 19.3995 41.2022 20.1137 40.8708 20.9015C40.5394 21.6892 40.3687 22.5347 40.3687 23.3887C40.3687 24.2428 40.5394 25.0883 40.8708 25.876C41.2022 26.6637 41.6877 27.3779 42.2991 27.977C42.9104 28.576 43.6353 29.0479 44.4316 29.3652C45.2279 29.6824 46.0797 29.8387 46.9373 29.825C47.7755 29.8594 48.6115 29.7158 49.3898 29.4039C50.1681 29.092 50.8709 28.6189 51.4515 28.0159C52.4825 26.8954 53.0328 25.418 52.9848 23.8991C52.9895 23.532 52.9569 23.1654 52.8875 22.8049H46.9163V22.8266ZM91.2815 24.1931C91.0315 23.441 90.5551 22.7838 89.9168 22.311C89.2785 21.8382 88.5094 21.5726 87.7142 21.5504C87.1792 21.5539 86.6504 21.6653 86.1598 21.878C85.6693 22.0907 85.2271 22.4003 84.8601 22.788C84.4931 23.1757 84.2089 23.6335 84.0246 24.1337C83.8403 24.6339 83.7598 25.1661 83.7879 25.6981C83.7752 26.2437 83.8732 26.7861 84.0761 27.293C84.279 27.8 84.5825 28.2609 84.9685 28.6482C85.3546 29.0355 85.8152 29.3412 86.3228 29.547C86.8303 29.7528 87.3742 29.8545 87.9222 29.8459C88.6082 29.8503 89.2847 29.6846 89.8905 29.3638C90.4963 29.0431 91.0123 28.5773 91.3922 28.0084L89.978 27.0646C89.7666 27.4164 89.4668 27.7073 89.108 27.9086C88.7493 28.1098 88.3441 28.2145 87.9323 28.2122C87.5074 28.2281 87.0874 28.1168 86.7267 27.8927C86.3659 27.6687 86.0809 27.3421 85.9084 26.9552L91.4777 24.6574L91.2798 24.1931H91.2815ZM85.6013 25.5787C85.5823 25.2772 85.6237 24.9749 85.7232 24.6895C85.8226 24.4041 85.9782 24.1412 86.1807 23.9163C86.3832 23.6913 86.6286 23.5087 86.9027 23.3791C87.1768 23.2495 87.474 23.1756 87.7771 23.1616C88.093 23.1399 88.4082 23.2116 88.6832 23.3678C88.9583 23.524 89.1809 23.7576 89.323 24.0394L85.6013 25.5787ZM81.077 29.5978H82.9055V17.4119H81.077V29.5978ZM78.0733 22.4809H78.0071C77.7288 22.1784 77.3887 21.9388 77.0096 21.7782C76.6306 21.6175 76.2214 21.5396 75.8095 21.5495C74.7346 21.5925 73.7181 22.048 72.9728 22.8205C72.2276 23.5931 71.8113 24.6227 71.8113 25.694C71.8113 26.7652 72.2276 27.7949 72.9728 28.5674C73.7181 29.3399 74.7346 29.7953 75.8095 29.8383C76.2224 29.8473 76.6324 29.7677 77.0116 29.6048C77.3908 29.4419 77.7303 29.1997 78.0071 28.8945H78.0733V29.49C78.0733 31.077 77.2237 31.9264 75.854 31.9264C75.3973 31.9149 74.9543 31.7688 74.5811 31.5065C74.2078 31.2443 73.921 30.8777 73.757 30.4531L72.1633 31.1146C72.4646 31.8416 72.9765 32.4628 73.6339 32.899C74.2912 33.3352 75.0641 33.5665 75.854 33.5634C77.9979 33.5634 79.8147 32.3106 79.8147 29.2403V21.7993H78.0859V22.4825L78.0733 22.4809ZM75.9764 28.2122C75.3452 28.1572 74.7577 27.8686 74.3297 27.4035C73.9017 26.9383 73.6642 26.3303 73.6642 25.6994C73.6642 25.0685 73.9017 24.4605 74.3297 23.9953C74.7577 23.5302 75.3452 23.2416 75.9764 23.1866C76.2904 23.2019 76.5982 23.28 76.8812 23.4162C77.1643 23.5525 77.417 23.7441 77.6241 23.9796C77.8312 24.2152 77.9885 24.4898 78.0868 24.7872C78.185 25.0846 78.2221 25.3987 78.1958 25.7106C78.2231 26.022 78.1865 26.3357 78.0881 26.6325C77.9897 26.9293 77.8317 27.203 77.6237 27.4371C77.4156 27.6711 77.162 27.8605 76.8781 27.9937C76.5941 28.127 76.2859 28.2013 75.9722 28.2122H75.9764ZM99.847 17.4119H95.4737V29.5986H97.3023V24.984H99.8488C100.365 25.0115 100.882 24.9341 101.367 24.7563C101.852 24.5785 102.296 24.3041 102.672 23.9499C103.047 23.5956 103.346 23.1689 103.55 22.6959C103.754 22.2228 103.86 21.7133 103.86 21.1984C103.86 20.6834 103.754 20.1739 103.55 19.7008C103.346 19.2278 103.047 18.8011 102.672 18.4469C102.296 18.0926 101.852 17.8182 101.367 17.6404C100.882 17.4626 100.365 17.3851 99.8488 17.4127L99.847 17.4119ZM99.9007 23.2818H97.3005V19.0998H99.9007C100.458 19.0998 100.992 19.3202 101.386 19.7123C101.779 20.1044 102.001 20.6362 102.001 21.1908C102.001 21.7454 101.779 22.2772 101.386 22.6694C100.992 23.0615 100.458 23.2818 99.9007 23.2818ZM111.194 21.5387C110.527 21.5004 109.863 21.6561 109.284 21.9868C108.704 22.3175 108.234 22.809 107.929 23.4013L109.551 24.0694C109.711 23.7753 109.954 23.5338 110.249 23.3741C110.545 23.2145 110.881 23.1435 111.216 23.1699C111.681 23.1246 112.145 23.2645 112.506 23.5589C112.868 23.8533 113.097 24.2784 113.145 24.741V24.8696C112.557 24.5626 111.904 24.4024 111.24 24.4027C109.49 24.4027 107.717 25.3557 107.717 27.1431C107.734 27.5198 107.826 27.8895 107.988 28.2301C108.151 28.5707 108.381 28.8754 108.664 29.126C108.947 29.3766 109.277 29.568 109.636 29.689C109.995 29.8099 110.374 29.8578 110.752 29.83C111.211 29.8565 111.669 29.7601 112.079 29.5506C112.488 29.3411 112.833 29.0264 113.079 28.639H113.144V29.5819H114.906V24.9138C114.899 22.7414 113.278 21.5379 111.19 21.5379L111.194 21.5387ZM110.964 28.213C110.366 28.213 109.528 27.9215 109.528 27.1723C109.528 26.2285 110.573 25.8719 111.465 25.8719C112.047 25.8541 112.623 25.9963 113.13 26.2828C113.066 26.8121 112.81 27.2999 112.411 27.6551C112.012 28.0102 111.496 28.2083 110.961 28.2122L110.964 28.213ZM121.334 21.7985L119.237 27.0846H119.171L116.995 21.7985H115.025L118.289 29.1877L116.429 33.2945H118.334L123.356 21.7985H121.334ZM104.871 29.5986H106.7V17.4119H104.871V29.5986Z" fill="white"/>
<path fill-rule="evenodd" clip-rule="evenodd" d="M10.3831 7.69259C10.0646 8.07861 9.90487 8.57045 9.936 9.06905V30.6287C9.90064 31.1256 10.0648 31.6161 10.3923 31.9926L10.4678 32.0586L22.6015 19.9787V19.709L10.4585 7.62744L10.3831 7.69259Z" fill="url(#paint0_linear_25_6418)"/>
<path fill-rule="evenodd" clip-rule="evenodd" d="M26.6357 24.0179L22.5895 19.9888V19.7065L26.6357 15.6782L26.7196 15.7317L31.5056 18.4403C32.8754 19.2087 32.8754 20.4774 31.5056 21.2558L26.7196 23.9645L26.6357 24.0179Z" fill="url(#paint1_linear_25_6418)"/>
<path fill-rule="evenodd" clip-rule="evenodd" d="M26.7206 23.9641L22.5872 19.8481L10.3805 32.0032C10.6594 32.2471 11.0147 32.3871 11.3856 32.3991C11.7566 32.4111 12.1203 32.2945 12.4145 32.0692L26.7206 23.9675" fill="url(#paint2_linear_25_6418)"/>
<path fill-rule="evenodd" clip-rule="evenodd" d="M26.7206 15.7314L12.4145 7.63971C12.1215 7.41144 11.7573 7.29298 11.3855 7.30504C11.0137 7.3171 10.6579 7.45892 10.3805 7.7057L22.5872 19.8482L26.7206 15.7314Z" fill="url(#paint3_linear_25_6418)"/>
<path opacity="0.2" fill-rule="evenodd" clip-rule="evenodd" d="M26.6351 23.8774L12.4263 31.9156C12.1462 32.1312 11.8027 32.2489 11.4487 32.2507C11.0947 32.2526 10.75 32.1383 10.4677 31.9257L10.3922 32.0009L10.4677 32.0668C10.7503 32.2788 11.0949 32.3926 11.4487 32.3908C11.8025 32.389 12.1459 32.2717 12.4263 32.0568L26.7324 23.9651L26.6351 23.8774Z" fill="black"/>
<path opacity="0.12" fill-rule="evenodd" clip-rule="evenodd" d="M31.5085 21.1154L26.6227 23.8775L26.7065 23.961L31.4926 21.2524C31.7741 21.1304 32.0176 20.9353 32.1976 20.6876C32.3776 20.4399 32.4875 20.1487 32.5159 19.8442C32.4629 20.1211 32.3437 20.3813 32.1684 20.6025C31.993 20.8238 31.7666 20.9997 31.5085 21.1154Z" fill="black"/>
<path opacity="0.25" fill-rule="evenodd" clip-rule="evenodd" d="M12.4163 7.78138L31.5084 18.5808C31.7672 18.6967 31.9949 18.8719 32.1727 19.0921C32.3506 19.3123 32.4736 19.5713 32.5317 19.8479C32.5034 19.5434 32.3935 19.2521 32.2135 19.0044C32.0335 18.7567 31.79 18.5617 31.5084 18.4397L12.4163 7.6394C11.0466 6.8593 9.93518 7.51076 9.93518 9.06929V9.21044C9.93518 7.65024 11.0457 7.01046 12.4163 7.78138Z" fill="white"/>
<defs>
<linearGradient id="paint0_linear_25_6418" x1="41.252" y1="32.9137" x2="39.772" y2="32.7063" gradientUnits="userSpaceOnUse">
<stop stop-color="#00A0FF"/>
<stop offset="0.007" stop-color="#00A1FF"/>
<stop offset="0.26" stop-color="#00BEFF"/>
<stop offset="0.512" stop-color="#00D2FF"/>
<stop offset="0.76" stop-color="#00DFFF"/>
<stop offset="1" stop-color="#00E3FF"/>
</linearGradient>
<linearGradient id="paint1_linear_25_6418" x1="41.9792" y1="31.3485" x2="39.3939" y2="31.3485" gradientUnits="userSpaceOnUse">
<stop stop-color="#FFE000"/>
<stop offset="0.409" stop-color="#FFBD00"/>
<stop offset="0.775" stop-color="#FFA500"/>
<stop offset="1" stop-color="#FF9C00"/>
</linearGradient>
<linearGradient id="paint2_linear_25_6418" x1="41.8516" y1="31.7222" x2="40.869" y2="29.5713" gradientUnits="userSpaceOnUse">
<stop stop-color="#FF3A44"/>
<stop offset="1" stop-color="#C31162"/>
</linearGradient>
<linearGradient id="paint3_linear_25_6418" x1="40.7078" y1="33.5588" x2="41.1512" y2="32.6009" gradientUnits="userSpaceOnUse">
<stop stop-color="#32A071"/>
<stop offset="0.068" stop-color="#2DA771"/>
<stop offset="0.476" stop-color="#15CF74"/>
<stop offset="0.801" stop-color="#06E775"/>
<stop offset="1" stop-color="#00F076"/>
</linearGradient>
</defs>
</svg>
