<svg width="118" height="40" viewBox="0 0 118 40" fill="none" xmlns="http://www.w3.org/2000/svg">
<path d="M107.838 0.350342H9.33554C8.97655 0.350342 8.62175 0.350342 8.26359 0.350342C7.96834 0.350342 7.66722 0.359529 7.36442 0.364541C6.70674 0.372134 6.0506 0.429653 5.4017 0.536597C4.75392 0.645941 4.12643 0.85206 3.54046 1.14798C2.95506 1.44638 2.42016 1.83416 1.95518 2.29725C1.48794 2.75916 1.09851 3.29303 0.801867 3.87833C0.504127 4.46233 0.297648 5.08816 0.189563 5.7342C0.0808804 6.37938 0.0225511 7.03197 0.0150979 7.68612C0.00587141 7.98513 0.00503264 8.28498 0 8.58399V31.12C0.00503264 31.4224 0.00587141 31.7164 0.0150979 32.0187C0.0228283 32.6729 0.0814381 33.3255 0.190401 33.9707C0.2982 34.617 0.504691 35.2432 0.802706 35.8274C1.0993 36.4105 1.48878 36.9419 1.95602 37.4009C2.41925 37.8661 2.95449 38.2541 3.5413 38.5502C4.12728 38.8468 4.7547 39.054 5.40253 39.1649C6.05127 39.2709 6.70707 39.3284 7.36442 39.337C7.66722 39.3437 7.96415 39.347 8.26443 39.347C8.62258 39.347 8.97738 39.347 9.33638 39.347H107.838C108.191 39.347 108.548 39.347 108.9 39.347C109.198 39.347 109.504 39.347 109.802 39.337C110.458 39.3289 111.113 39.2714 111.761 39.1649C112.411 39.0533 113.04 38.8461 113.629 38.5502C114.216 38.2539 114.75 37.8659 115.213 37.4009C115.679 36.9401 116.069 36.409 116.37 35.8274C116.665 35.2428 116.87 34.6167 116.976 33.9707C117.085 33.3254 117.146 32.673 117.158 32.0187C117.158 31.7156 117.158 31.4224 117.158 31.12C117.166 30.7659 117.166 30.4134 117.166 30.0535V9.64807C117.166 9.29143 117.166 8.93646 117.158 8.58316C117.158 8.28415 117.158 7.9843 117.158 7.68529C117.146 7.03105 117.085 6.3786 116.976 5.73337C116.87 5.08771 116.665 4.46193 116.37 3.8775C115.765 2.70477 114.807 1.75018 113.629 1.14798C113.04 0.85274 112.411 0.646675 111.761 0.536597C111.113 0.429218 110.458 0.371696 109.802 0.364541C109.504 0.359529 109.198 0.350342 108.9 0.350342C108.548 0.350342 108.19 0.350342 107.838 0.350342Z" fill="#A6A6A6"/>
<path d="M8.26938 38.4983C7.97078 38.4983 7.68224 38.4983 7.38364 38.4883C6.77047 38.4805 6.15873 38.4274 5.55343 38.3296C4.98903 38.2327 4.44229 38.0526 3.93125 37.7951C3.42521 37.5402 2.96359 37.206 2.56405 36.8053C2.15873 36.4088 1.82128 35.9489 1.56507 35.4439C1.3059 34.9354 1.12655 34.3904 1.03329 33.8278C0.932286 33.2228 0.877609 32.611 0.869728 31.9978C0.863856 31.794 0.855469 31.1074 0.855469 31.1074V8.58391C0.855469 8.58391 0.863856 7.90654 0.869728 7.71193C0.877147 7.1004 0.931264 6.49032 1.03161 5.88696C1.12498 5.32304 1.3043 4.77662 1.56339 4.26663C1.81812 3.76168 2.15321 3.30109 2.55566 2.90271C2.95901 2.50094 3.42319 2.16471 3.93125 1.90628C4.44114 1.64976 4.98684 1.47098 5.55008 1.37591C6.15723 1.2769 6.77097 1.22329 7.38615 1.21555L8.27022 1.20386H108.896L109.79 1.21639C110.4 1.22367 111.008 1.27672 111.61 1.37508C112.179 1.47138 112.73 1.65154 113.246 1.90962C114.262 2.43115 115.089 3.25619 115.61 4.26913C115.866 4.77568 116.042 5.31775 116.135 5.87694C116.235 6.48456 116.291 7.09869 116.302 7.71444C116.302 7.9909 116.302 8.2874 116.302 8.58224C116.31 8.94806 116.31 9.29552 116.31 9.64715V30.0542C116.31 30.4083 116.31 30.7541 116.302 31.1024C116.302 31.4198 116.302 31.7096 116.302 32.0086C116.291 32.6144 116.235 33.2185 116.135 33.8161C116.043 34.3824 115.865 34.9315 115.606 35.4439C115.348 35.9436 115.012 36.3997 114.612 36.7953C114.211 37.1989 113.749 37.5356 113.241 37.7926C112.727 38.0519 112.176 38.2327 111.608 38.3288C111.003 38.4271 110.391 38.4801 109.778 38.4875C109.491 38.4942 109.191 38.4975 108.899 38.4975H107.838L8.26938 38.4983Z" fill="black"/>
<path d="M24.2514 20.1442C24.2623 19.33 24.4798 18.5319 24.8839 17.824C25.2879 17.1162 25.8653 16.5217 26.5622 16.0958C26.1199 15.4667 25.5364 14.949 24.8581 14.5838C24.1797 14.2186 23.4251 14.0159 22.6544 13.9919C21.0104 13.8198 19.4158 14.9716 18.5779 14.9716C17.724 14.9716 16.434 14.0086 15.045 14.0378C14.1463 14.0662 13.2704 14.3262 12.5027 14.7923C11.7351 15.2584 11.1019 15.9147 10.6649 16.6972C8.77099 19.9621 10.1835 24.7596 11.9977 27.3989C12.9053 28.691 13.9663 30.1343 15.3528 30.0833C16.7108 30.0274 17.2183 29.2205 18.8572 29.2205C20.4811 29.2205 20.9542 30.0833 22.3734 30.0508C23.8303 30.0274 24.7488 28.7528 25.6244 27.4482C26.2766 26.5275 26.7785 25.5098 27.1116 24.433C26.2646 24.0768 25.5417 23.4801 25.033 22.7174C24.5244 21.9547 24.2525 21.0597 24.2514 20.1442Z" fill="white"/>
<path d="M21.5771 12.2607C22.3714 11.3107 22.7625 10.0897 22.6675 8.85718C21.4536 8.98413 20.3324 9.56177 19.5271 10.475C18.7321 11.3751 18.3287 12.5528 18.4057 13.7491C19.0129 13.7561 19.6138 13.6258 20.1632 13.368C20.7125 13.1102 21.196 12.7316 21.5771 12.2607Z" fill="white"/>
<path d="M41.4208 26.8115H36.7866L35.6735 30.0839H33.7108L38.1009 17.9731H40.1408L44.531 30.0839H42.5347L41.4208 26.8115ZM37.2664 25.3014H40.9402L39.1293 19.9902H39.079L37.2664 25.3014Z" fill="white"/>
<path d="M54.0109 25.6715C54.0109 28.4144 52.5363 30.1767 50.311 30.1767C49.7474 30.206 49.1869 30.0767 48.6937 29.8036C48.2005 29.5305 47.7945 29.1246 47.5221 28.6324H47.4793V33.0048H45.66V21.2573H47.4215V22.7256H47.455C47.7399 22.2358 48.1528 21.8321 48.6498 21.5574C49.1468 21.2826 49.7093 21.1472 50.2775 21.1654C52.5279 21.1646 54.0109 22.9353 54.0109 25.6715ZM52.1404 25.6715C52.1404 23.8841 51.2127 22.7089 49.7977 22.7089C48.407 22.7089 47.4726 23.9083 47.4726 25.6715C47.4726 27.4505 48.4079 28.6415 49.7977 28.6415C51.2127 28.6415 52.1404 27.4722 52.1404 25.6715Z" fill="white"/>
<path d="M63.7673 25.6712C63.7673 28.4141 62.2927 30.1764 60.0674 30.1764C59.5038 30.2057 58.9434 30.0764 58.4501 29.8033C57.9569 29.5302 57.5509 29.1243 57.2785 28.6321H57.2366V33.0045H55.4198V21.257H57.1812V22.7254H57.2148C57.4992 22.236 57.9114 21.8325 58.4076 21.5577C58.9038 21.2829 59.4655 21.1469 60.0331 21.1643C62.2843 21.1643 63.7673 22.935 63.7673 25.6712ZM61.8968 25.6712C61.8968 23.8838 60.9691 22.7087 59.5541 22.7087C58.1634 22.7087 57.229 23.908 57.229 25.6712C57.229 27.4502 58.1643 28.6413 59.5541 28.6413C60.9691 28.6413 61.8968 27.4719 61.8968 25.6712Z" fill="white"/>
<path d="M70.2149 26.7105C70.35 27.9116 71.5209 28.6992 73.1221 28.6992C74.6562 28.6992 75.7592 27.9107 75.7592 26.8283C75.7592 25.8887 75.0941 25.3249 73.518 24.9398L71.9419 24.564C69.7091 24.0269 68.6707 22.9871 68.6707 21.2999C68.6707 19.2119 70.4993 17.7761 73.0953 17.7761C75.6644 17.7761 77.4258 19.211 77.4854 21.2999H75.6485C75.5386 20.0914 74.5354 19.3622 73.0693 19.3622C71.6031 19.3622 70.6008 20.1006 70.6008 21.1738C70.6008 22.0299 71.2416 22.5336 72.8084 22.9194L74.1504 23.2468C76.6449 23.8315 77.6817 24.8338 77.6817 26.6036C77.6817 28.8687 75.8699 30.2878 72.9845 30.2878C70.2879 30.2878 68.4678 28.9022 68.3495 26.7122L70.2149 26.7105Z" fill="white"/>
<path d="M81.6089 19.1677V21.2558H83.2949V22.6907H81.6089V27.5576C81.6089 28.3134 81.9445 28.6659 82.6876 28.6659C82.8878 28.6625 83.0877 28.6486 83.2865 28.6241V30.0507C82.9533 30.1126 82.6147 30.1406 82.2758 30.1342C80.4808 30.1342 79.7813 29.4661 79.7813 27.7513V22.6915H78.4921V21.2558H79.7813V19.1677H81.6089Z" fill="white"/>
<path d="M84.2714 25.6709C84.2714 22.8938 85.9145 21.1482 88.4761 21.1482C91.0377 21.1482 92.6817 22.8938 92.6817 25.6709C92.6817 28.4481 91.0554 30.1937 88.4761 30.1937C85.8969 30.1937 84.2714 28.4564 84.2714 25.6709ZM90.8272 25.6709C90.8272 23.7658 89.9507 22.6416 88.4786 22.6416C87.0066 22.6416 86.1301 23.775 86.1301 25.6709C86.1301 27.5836 87.0058 28.6995 88.4786 28.6995C89.9515 28.6995 90.8272 27.5836 90.8272 25.6709Z" fill="white"/>
<path d="M94.1813 21.2575H95.9167V22.7609H95.9586C96.076 22.2916 96.352 21.8768 96.7403 21.5863C97.1286 21.2958 97.6055 21.1472 98.0908 21.1656C98.3004 21.1649 98.5095 21.1876 98.714 21.2332V22.9279C98.4492 22.8474 98.173 22.8104 97.8962 22.8185C97.6318 22.8078 97.3682 22.8541 97.1235 22.9544C96.8788 23.0548 96.6588 23.2066 96.4786 23.3996C96.2984 23.5926 96.1623 23.8221 96.0797 24.0725C95.997 24.3228 95.9697 24.588 95.9997 24.8498V30.0858H94.1813V21.2575Z" fill="white"/>
<path d="M107.104 27.4917C106.859 29.0945 105.292 30.1937 103.287 30.1937C100.708 30.1937 99.1073 28.4731 99.1073 25.7127C99.1073 22.9523 100.717 21.1482 103.211 21.1482C105.663 21.1482 107.206 22.8262 107.206 25.5022V26.1228H100.944V26.2322C100.915 26.5571 100.956 26.8844 101.064 27.1923C101.172 27.5003 101.344 27.7818 101.57 28.0183C101.795 28.2549 102.069 28.4409 102.372 28.5641C102.675 28.6873 103.002 28.7448 103.329 28.7329C103.759 28.773 104.191 28.6738 104.559 28.4501C104.928 28.2263 105.215 27.8899 105.376 27.4909L107.104 27.4917ZM100.953 24.8574H105.384C105.4 24.5654 105.356 24.2731 105.253 23.999C105.151 23.7249 104.992 23.4749 104.788 23.2646C104.584 23.0542 104.338 22.8882 104.067 22.7768C103.795 22.6654 103.503 22.6112 103.21 22.6174C102.913 22.6156 102.62 22.6723 102.345 22.7841C102.071 22.896 101.822 23.0608 101.612 23.269C101.402 23.4773 101.236 23.7248 101.122 23.9975C101.009 24.2701 100.952 24.5624 100.953 24.8574Z" fill="white"/>
<path d="M37.0381 6.91267C37.4196 6.88528 37.8025 6.94258 38.1591 7.08042C38.5157 7.21827 38.8371 7.43323 39.1002 7.70978C39.3632 7.98634 39.5613 8.31759 39.6802 8.67964C39.7991 9.04169 39.8358 9.4255 39.7876 9.80338C39.7876 11.6618 38.7811 12.7267 37.0381 12.7267H34.9277V6.91267H37.0381ZM35.8353 11.9073H36.9366C37.2094 11.9239 37.4824 11.8796 37.7359 11.7778C37.9893 11.676 38.2167 11.5191 38.4015 11.3187C38.5864 11.1182 38.724 10.8792 38.8043 10.6191C38.8846 10.359 38.9056 10.0843 38.8658 9.81507C38.9021 9.547 38.8786 9.27425 38.7968 9.01629C38.715 8.75833 38.5771 8.52152 38.3928 8.32278C38.2085 8.12404 37.9825 7.96826 37.7307 7.86658C37.479 7.76489 37.2078 7.7198 36.9366 7.73453H35.8353V11.9073Z" fill="white"/>
<path d="M40.8108 10.5325C40.7835 10.2443 40.817 9.95345 40.9091 9.67878C41.0012 9.4041 41.1498 9.1516 41.3456 8.93744C41.5413 8.72328 41.7798 8.55219 42.0458 8.43512C42.3118 8.31804 42.5994 8.25757 42.8902 8.25757C43.181 8.25757 43.4686 8.31804 43.7346 8.43512C44.0005 8.55219 44.239 8.72328 44.4348 8.93744C44.6305 9.1516 44.7792 9.4041 44.8713 9.67878C44.9633 9.95345 44.9968 10.2443 44.9695 10.5325C44.9981 10.8216 44.9656 11.1134 44.8741 11.3891C44.7826 11.6649 44.6342 11.9185 44.4383 12.1337C44.2424 12.3489 44.0035 12.5209 43.7369 12.6386C43.4702 12.7563 43.1818 12.8171 42.8902 12.8171C42.5985 12.8171 42.3101 12.7563 42.0435 12.6386C41.7768 12.5209 41.5379 12.3489 41.342 12.1337C41.1462 11.9185 40.9977 11.6649 40.9062 11.3891C40.8147 11.1134 40.7823 10.8216 40.8108 10.5325ZM44.0745 10.5325C44.0745 9.58123 43.6451 9.02413 42.8918 9.02413C42.1386 9.02413 41.71 9.58039 41.71 10.5325C41.71 11.4847 42.1353 12.0443 42.8918 12.0443C43.6484 12.0443 44.0745 11.488 44.0745 10.5325Z" fill="white"/>
<path d="M50.4978 12.7294H49.5952L48.6835 9.49624H48.6147L47.7072 12.7294H46.813L45.5977 8.33862H46.48L47.2702 11.6887H47.3356L48.2423 8.33862H49.0811L49.9853 11.6895H50.0541L50.84 8.33946H51.7098L50.4978 12.7294Z" fill="white"/>
<path d="M52.7324 8.33926H53.5712V9.03668H53.6366C53.7469 8.78608 53.933 8.57599 54.1689 8.43571C54.4048 8.29542 54.6788 8.23193 54.9527 8.25407C55.1671 8.23812 55.3825 8.27041 55.5827 8.34854C55.783 8.42668 55.963 8.54865 56.1095 8.70545C56.256 8.86224 56.3653 9.04984 56.4291 9.25435C56.493 9.45887 56.5098 9.67506 56.4784 9.88693V12.7267H55.6061V10.1049C55.6061 9.39916 55.2982 9.04837 54.6549 9.04837C54.5093 9.04166 54.3639 9.06637 54.2287 9.12082C54.0936 9.17527 53.9719 9.25816 53.8719 9.36382C53.7719 9.46948 53.6961 9.59541 53.6495 9.73299C53.603 9.87056 53.5868 10.0165 53.6022 10.1609V12.7292H52.7324V8.33926Z" fill="white"/>
<path d="M57.8613 6.62573H58.7311V12.7304H57.8613V6.62573Z" fill="white"/>
<path d="M59.9417 10.5333C59.9131 10.2443 59.9456 9.95249 60.0371 9.67673C60.1286 9.40096 60.277 9.14732 60.4729 8.93213C60.6687 8.71694 60.9077 8.54497 61.1743 8.42727C61.4409 8.30958 61.7294 8.24878 62.021 8.24878C62.3127 8.24878 62.6011 8.30958 62.8677 8.42727C63.1344 8.54497 63.3733 8.71694 63.5692 8.93213C63.765 9.14732 63.9135 9.40096 64.005 9.67673C64.0964 9.95249 64.1289 10.2443 64.1003 10.5333C64.1289 10.8223 64.0964 11.1141 64.005 11.3899C63.9135 11.6656 63.765 11.9193 63.5692 12.1345C63.3733 12.3497 63.1344 12.5216 62.8677 12.6393C62.6011 12.757 62.3127 12.8178 62.021 12.8178C61.7294 12.8178 61.4409 12.757 61.1743 12.6393C60.9077 12.5216 60.6687 12.3497 60.4729 12.1345C60.277 11.9193 60.1286 11.6656 60.0371 11.3899C59.9456 11.1141 59.9131 10.8223 59.9417 10.5333ZM63.2054 10.5333C63.2054 9.58198 62.7759 9.02488 62.0227 9.02488C61.2695 9.02488 60.8409 9.58114 60.8409 10.5333C60.8409 11.4855 61.2661 12.0451 62.0227 12.0451C62.7793 12.0451 63.2054 11.4888 63.2054 10.5333Z" fill="white"/>
<path d="M65.0156 11.4886C65.0156 10.6985 65.6028 10.2425 66.6554 10.1782L67.8498 10.1097V9.73048C67.8498 9.26693 67.542 9.00467 66.9473 9.00467C66.4617 9.00467 66.1253 9.18257 66.0247 9.49244H65.1859C65.2748 8.74074 65.9869 8.25464 66.9876 8.25464C68.0931 8.25464 68.7163 8.80255 68.7163 9.72965V12.7298H67.8775V12.1125H67.8087C67.6689 12.3338 67.4727 12.5142 67.24 12.6352C67.0073 12.7563 66.7466 12.8137 66.4843 12.8016C66.2994 12.8206 66.1125 12.8009 65.9357 12.7436C65.7589 12.6864 65.5961 12.5929 65.4578 12.4692C65.3194 12.3456 65.2086 12.1944 65.1325 12.0255C65.0563 11.8566 65.0165 11.6738 65.0156 11.4886ZM67.8498 11.1136V10.7469L66.7729 10.8154C66.1656 10.8555 65.8905 11.0618 65.8905 11.4485C65.8905 11.8352 66.2344 12.0733 66.7083 12.0733C66.847 12.0874 66.9872 12.0735 67.1204 12.0326C67.2537 11.9916 67.3773 11.9243 67.4839 11.8348C67.5905 11.7452 67.6779 11.6352 67.7409 11.5113C67.8039 11.3874 67.8404 11.2522 67.8498 11.1136Z" fill="white"/>
<path d="M69.8613 10.5329C69.8613 9.14561 70.5776 8.26695 71.6915 8.26695C71.9671 8.25425 72.2406 8.31992 72.48 8.45629C72.7194 8.59266 72.9149 8.79409 73.0436 9.03703H73.1091V6.62573H73.9789V12.7304H73.1451V12.0372H73.0763C72.9377 12.2785 72.7353 12.4775 72.4912 12.6125C72.2471 12.7475 71.9706 12.8134 71.6915 12.8031C70.5701 12.8022 69.8613 11.9236 69.8613 10.5329ZM70.7605 10.5329C70.7605 11.4642 71.2017 12.0246 71.9348 12.0246C72.6679 12.0246 73.1216 11.4558 73.1216 10.5371C73.1216 9.61834 72.6637 9.04538 71.9348 9.04538C71.2059 9.04538 70.7605 9.60916 70.7605 10.5329Z" fill="white"/>
<path d="M77.5784 10.5325C77.5511 10.2443 77.5846 9.95345 77.6767 9.67878C77.7687 9.4041 77.9174 9.1516 78.1131 8.93744C78.3089 8.72328 78.5474 8.55219 78.8134 8.43512C79.0793 8.31804 79.3669 8.25757 79.6577 8.25757C79.9485 8.25757 80.2361 8.31804 80.5021 8.43512C80.7681 8.55219 81.0066 8.72328 81.2023 8.93744C81.3981 9.1516 81.5467 9.4041 81.6388 9.67878C81.7309 9.95345 81.7644 10.2443 81.7371 10.5325C81.7657 10.8216 81.7332 11.1134 81.6417 11.3891C81.5502 11.6649 81.4017 11.9185 81.2059 12.1337C81.01 12.3489 80.7711 12.5209 80.5045 12.6386C80.2378 12.7563 79.9494 12.8171 79.6577 12.8171C79.3661 12.8171 79.0777 12.7563 78.811 12.6386C78.5444 12.5209 78.3055 12.3489 78.1096 12.1337C77.9137 11.9185 77.7653 11.6649 77.6738 11.3891C77.5823 11.1134 77.5498 10.8216 77.5784 10.5325ZM80.8421 10.5325C80.8421 9.58123 80.4126 9.02413 79.6594 9.02413C78.9062 9.02413 78.4742 9.58457 78.4742 10.5325C78.4742 11.4805 78.8995 12.0443 79.6561 12.0443C80.4126 12.0443 80.8421 11.488 80.8421 10.5325Z" fill="white"/>
<path d="M82.9043 8.34024H83.7431V9.03765H83.8085C83.9188 8.78706 84.1049 8.57697 84.3408 8.43669C84.5767 8.2964 84.8507 8.2329 85.1245 8.25505C85.339 8.2391 85.5543 8.27139 85.7546 8.34952C85.9549 8.42765 86.1349 8.54963 86.2814 8.70643C86.4279 8.86322 86.5371 9.05082 86.601 9.25533C86.6648 9.45985 86.6817 9.67604 86.6503 9.88791V12.7277H85.7821V10.1059C85.7821 9.40014 85.4743 9.04934 84.831 9.04934C84.6853 9.04264 84.54 9.06735 84.4048 9.1218C84.2697 9.17625 84.1479 9.25914 84.048 9.3648C83.948 9.47046 83.8721 9.59639 83.8256 9.73396C83.779 9.87154 83.7629 10.0175 83.7783 10.1619V12.7302H82.9043V8.34024Z" fill="white"/>
<path d="M91.5668 7.24683V8.36018H92.5222V9.09017H91.5668V11.3453C91.5668 11.8055 91.7572 12.0068 92.19 12.0068C92.3022 12.0065 92.4142 11.9999 92.5255 11.9867V12.7084C92.3694 12.7362 92.2111 12.751 92.0525 12.7526C91.0845 12.7526 90.6995 12.4135 90.6995 11.5674V9.08933H90V8.35935H90.6995V7.24683H91.5668Z" fill="white"/>
<path d="M93.707 6.62573H94.5693V9.04788H94.6381C94.7536 8.79542 94.9444 8.58449 95.1845 8.44373C95.4246 8.30297 95.7024 8.23921 95.9801 8.2611C96.1935 8.24963 96.4068 8.28518 96.6049 8.36522C96.8029 8.44526 96.9807 8.56783 97.1257 8.72418C97.2707 8.88052 97.3793 9.0668 97.4437 9.26972C97.5081 9.47265 97.5267 9.68722 97.4983 9.89814V12.7329H96.6344V10.1095C96.6344 9.40787 96.3064 9.0529 95.6916 9.0529C95.542 9.04062 95.3915 9.06105 95.2506 9.11277C95.1098 9.16449 94.982 9.24624 94.8762 9.3523C94.7704 9.45836 94.6892 9.58616 94.6382 9.72676C94.5872 9.86736 94.5677 10.0174 94.581 10.1663V12.7304H93.707V6.62573Z" fill="white"/>
<path d="M102.577 11.5448C102.459 11.9461 102.203 12.2933 101.854 12.5255C101.504 12.7578 101.084 12.8603 100.667 12.8152C100.376 12.8227 100.088 12.7673 99.8208 12.6527C99.554 12.5381 99.3155 12.367 99.1218 12.1515C98.928 11.9359 98.7837 11.6809 98.6988 11.4042C98.6139 11.1276 98.5904 10.8358 98.6301 10.5492C98.5913 10.2617 98.6151 9.96923 98.6998 9.69165C98.7845 9.41407 98.9281 9.15785 99.1209 8.94036C99.3137 8.72287 99.5512 8.54918 99.8173 8.43105C100.083 8.31292 100.372 8.25312 100.663 8.25569C101.89 8.25569 102.63 9.09092 102.63 10.469V10.7714H99.5166V10.8198C99.503 10.981 99.5232 11.1432 99.5762 11.2961C99.6292 11.4489 99.7137 11.5891 99.8243 11.7075C99.9348 11.826 100.069 11.9201 100.218 11.9838C100.368 12.0476 100.529 12.0795 100.691 12.0777C100.899 12.1027 101.11 12.0654 101.297 11.9707C101.484 11.8759 101.638 11.728 101.74 11.5456L102.577 11.5448ZM99.5166 10.1299H101.744C101.755 9.98255 101.735 9.8345 101.685 9.6953C101.635 9.5561 101.556 9.42883 101.454 9.32168C101.352 9.21453 101.228 9.12988 101.091 9.07316C100.954 9.01645 100.807 8.98892 100.658 8.99236C100.508 8.99045 100.358 9.01858 100.219 9.07508C100.079 9.13159 99.9528 9.21532 99.8464 9.32135C99.74 9.42738 99.656 9.55355 99.5994 9.69242C99.5427 9.8313 99.5146 9.98006 99.5166 10.1299Z" fill="white"/>
</svg>
